<?xml version="1.0" encoding="UTF-8"?>
<svg version="1.1" xmlns="http://www.w3.org/2000/svg" width="624" height="624">
<path d="M0 0 C4.14943566 0.01779397 8.29885814 0.0116005 12.4483216 0.00872833 C20.45938614 0.0066238 28.47026757 0.02487432 36.4812854 0.05073364 C45.77106609 0.07980863 55.06074061 0.08272751 64.35057665 0.08587295 C88.81589651 0.10677853 113.28117645 0.1626236 137.74645068 0.21429092 C219.82363818 0.33804092 219.82363818 0.33804092 303.55895068 0.46429092 C303.55895068 181.96429092 303.55895068 363.46429092 303.55895068 550.46429092 C222.53363818 550.58804092 222.53363818 550.58804092 139.87145068 550.71429092 C114.34668383 550.76891494 114.34668383 550.76891494 88.30626513 550.82464248 C67.42650439 550.84270889 67.42650439 550.84270889 57.63236071 550.84606582 C50.83441123 550.84977209 44.03659564 550.86434232 37.23868395 550.88659316 C29.37338369 550.91229908 21.50821028 550.9235785 13.64286783 550.91807072 C9.63098787 550.91569092 5.61939026 550.91909801 1.60756387 550.94115144 C-59.3925039 551.25970682 -119.1535734 534.812301 -167.44104932 496.46429092 C-168.31374463 495.78366592 -169.18643995 495.10304092 -170.08558057 494.40179092 C-193.59324886 475.6782601 -212.47609243 453.47322892 -227.44104932 427.46429092 C-227.80537061 426.84409072 -228.1696919 426.22389053 -228.54505323 425.58489639 C-239.22583421 407.30577473 -245.97556797 387.08365104 -250.44104932 366.46429092 C-250.70788526 365.27392226 -250.70788526 365.27392226 -250.98011182 364.05950576 C-256.26133253 339.35617675 -256.07492815 309.07469953 -250.44104932 284.46429092 C-250.22061963 283.4796083 -250.00018995 282.49492568 -249.77308057 281.4804042 C-246.6347216 267.87877301 -242.43423859 255.03717581 -236.72986768 242.29119521 C-233.49101899 235.015649 -232.14586168 229.65830349 -233.1998689 221.64957839 C-233.59003935 218.11432212 -233.62273811 214.59238419 -233.64417432 211.03850967 C-233.65123395 210.25760467 -233.65829359 209.47669967 -233.66556714 208.67213088 C-233.89008644 176.5541074 -233.89008644 176.5541074 -230.44104932 162.46429092 C-230.24768995 161.62156631 -230.05433057 160.7788417 -229.85511182 159.91057998 C-217.55902843 107.06398702 -182.46736389 63.32252332 -136.86536573 34.84807998 C-94.86254856 9.35753057 -48.64985409 -0.26339946 0 0 Z M81.55895068 15.46429092 C84.13461613 18.03995637 87.06246152 19.03426778 90.37145068 20.40179092 C106.76056589 27.41168412 122.30312087 35.7359026 136.55895068 46.46429092 C137.19574755 46.94027725 137.83254443 47.41626357 138.48863818 47.90667373 C180.55991003 79.73468913 205.34822978 122.29929676 215.55895068 173.46429092 C215.84802294 174.90481826 215.84802294 174.90481826 216.14293505 176.37444717 C216.61652588 178.73741612 217.08853725 181.10068774 217.55895068 183.46429092 C219.8018614 180.09992483 220.99620861 176.69913711 222.29723193 172.90960342 C222.57042254 172.1247557 222.84361315 171.33990798 223.12508227 170.531277 C224.04472537 167.88538111 224.95808738 165.23736055 225.87145068 162.58929092 C226.52193977 160.71353289 227.17274553 158.83788465 227.82384326 156.96233779 C231.92926121 145.12328771 236.00372865 133.27351824 240.08238818 121.42522842 C240.31694657 120.74386951 240.55150496 120.0625106 240.79317118 119.36050445 C243.13841997 112.54747103 245.48274758 105.73412576 247.82203509 98.91904289 C248.49047091 96.97191208 249.15930555 95.02491873 249.8282683 93.0779689 C250.64872801 90.6897205 251.46842845 88.30121106 252.28719164 85.91238052 C252.84553195 84.2877539 252.84553195 84.2877539 253.41515185 82.63030654 C253.76830462 81.59752578 254.12145739 80.56474502 254.48531176 79.50066787 C255.20936255 77.4529672 255.96850662 75.41738312 256.75978686 73.39471084 C257.13606219 72.42960586 257.51233752 71.46450088 257.90001513 70.47015029 C258.41396586 69.20044387 258.41396586 69.20044387 258.93829943 67.90508682 C259.67039361 65.02602636 259.40848102 63.29119325 258.55895068 60.46429092 C256.19010551 56.89625481 253.34038789 53.71740542 250.55895068 50.46429092 C249.92473193 49.6947206 249.29051318 48.92515029 248.63707568 48.13225967 C243.54001643 42.11899349 237.78987516 37.26854855 231.55895068 32.46429092 C230.71719287 31.79526748 229.87543505 31.12624404 229.00816943 30.43694717 C226.25836086 28.32973423 223.43200859 26.40057002 220.55895068 24.46429092 C220.02708211 24.08414399 219.49521353 23.70399707 218.94722773 23.31233054 C205.18653993 13.69943073 191.47524593 14.28667242 175.21129443 14.58538467 C172.5003438 14.60726831 169.78939631 14.61544276 167.07837512 14.62397414 C160.71755032 14.65171565 154.35815259 14.7252446 147.99795039 14.81611955 C140.7451767 14.9174514 133.49232723 14.96638248 126.23901953 15.01137847 C111.34487427 15.1049244 96.4520566 15.2627605 81.55895068 15.46429092 Z M237.55895068 15.46429092 C241.57425718 19.50967113 241.57425718 19.50967113 245.79332568 23.22600967 C246.36341357 23.70070693 246.93350146 24.1754042 247.52086474 24.66448623 C248.40596728 25.40070205 248.40596728 25.40070205 249.30895068 26.15179092 C254.67488633 30.66053033 259.38365465 35.31487687 263.88707568 40.69866592 C264.7146538 41.57265029 264.7146538 41.57265029 265.55895068 42.46429092 C266.21895068 42.46429092 266.87895068 42.46429092 267.55895068 42.46429092 C270.52895068 33.55429092 273.49895068 24.64429092 276.55895068 15.46429092 C263.68895068 15.46429092 250.81895068 15.46429092 237.55895068 15.46429092 Z M-42.62854932 18.08929092 C-43.7598628 18.26315322 -44.89117628 18.43701553 -46.05677198 18.61614639 C-58.99764337 20.71364069 -72.28370618 23.44318757 -84.44104932 28.46429092 C-79.03071523 45.16585587 -73.04668429 61.6309973 -66.94104932 78.08929092 C-66.02016675 80.57875973 -65.09959249 83.06834261 -64.17933057 85.55804092 C-62.40076912 90.36926334 -60.61910073 95.17931884 -58.83558057 99.98870498 C-57.40456237 103.85107975 -55.98191095 107.71609057 -54.57776807 111.58831435 C-51.45142004 120.19623654 -48.15060638 128.71087085 -44.71058057 137.19866592 C-39.03869372 151.22912643 -33.93207746 165.45010359 -28.84748243 179.70043594 C-26.92844582 185.07598675 -25.00125026 190.44861766 -23.07405446 195.8212474 C-22.41615142 197.65766714 -21.76066583 199.49495239 -21.10527967 201.33227187 C-18.32950458 209.08910094 -15.43163335 216.78781194 -12.44104932 224.46429092 C-12.11104932 224.46429092 -11.78104932 224.46429092 -11.44104932 224.46429092 C-11.44104932 155.82429092 -11.44104932 87.18429092 -11.44104932 16.46429092 C-27.20354592 16.43161632 -27.20354592 16.43161632 -42.62854932 18.08929092 Z M4.55895068 16.46429092 C4.55895068 99.95429092 4.55895068 183.44429092 4.55895068 269.46429092 C64.28895068 269.46429092 124.01895068 269.46429092 185.55895068 269.46429092 C188.74260062 263.09699103 191.55012211 257.40172315 193.62145068 250.71429092 C193.87112597 249.90919082 194.12080126 249.10409072 194.37804247 248.27459365 C207.15230658 205.38281399 201.90533982 160.61660719 181.17223193 121.17132217 C173.20245408 106.52778642 162.93861196 93.60259629 151.55895068 81.46429092 C150.86938281 80.72372451 150.86938281 80.72372451 150.16588427 79.96819717 C137.13178959 66.08132379 122.02691918 54.9635628 105.55895068 45.46429092 C104.84577685 45.05082412 104.13260302 44.63735732 103.39781787 44.21136123 C74.0171036 27.40946705 38.53728168 16.46429092 4.55895068 16.46429092 Z M286.55895068 37.46429092 C285.37936374 40.68888364 284.21760936 43.91962528 283.05895068 47.15179092 C282.5581499 48.5198085 282.5581499 48.5198085 282.04723193 49.91546279 C281.73141162 50.80169326 281.4155913 51.68792373 281.09020068 52.60100967 C280.79693896 53.41271621 280.50367724 54.22442275 280.2015288 55.06072646 C278.64522079 60.88209894 280.14064716 64.11764719 283.05895068 69.27679092 C283.39281787 69.87427139 283.72668505 70.47175185 284.07066943 71.08733779 C284.890677 72.55163703 285.72354379 74.00872229 286.55895068 75.46429092 C286.88895068 75.46429092 287.21895068 75.46429092 287.55895068 75.46429092 C287.55895068 62.92429092 287.55895068 50.38429092 287.55895068 37.46429092 C287.22895068 37.46429092 286.89895068 37.46429092 286.55895068 37.46429092 Z M-162.44104932 75.46429092 C-162.93476026 75.92400283 -163.4284712 76.38371475 -163.93714307 76.85735732 C-196.42500137 107.35016946 -216.53601611 150.26034433 -218.41956495 194.85247451 C-219.50636891 242.41888594 -200.64856878 285.1096035 -168.44104932 319.46429092 C-167.98133741 319.95800185 -167.52162549 320.45171279 -167.04798292 320.96038467 C-156.09928742 332.62541793 -143.7610379 342.28748806 -130.25354932 350.83929092 C-129.6737129 351.20755996 -129.09387647 351.575829 -128.49646924 351.95525771 C-122.00911815 355.93280654 -115.31131942 359.02915587 -108.44104932 362.46429092 C-108.44104932 255.54429092 -108.44104932 148.62429092 -108.44104932 38.46429092 C-125.17252799 38.46429092 -151.2595907 64.98167345 -162.44104932 75.46429092 Z M-93.44104932 52.46429092 C-93.44104932 157.07429092 -93.44104932 261.68429092 -93.44104932 369.46429092 C-75.04677531 375.87670311 -75.04677531 375.87670311 -56.37854932 380.33929092 C-55.33819532 380.53289199 -54.29784131 380.72649307 -53.22596143 380.92596084 C-50.30096119 381.4607803 -47.37283453 381.96823244 -44.44104932 382.46429092 C-43.6950044 382.59561416 -42.94895948 382.7269374 -42.18030713 382.86224014 C-34.75414834 384.14677464 -27.51490651 384.56141895 -19.99964307 384.50725967 C-19.17299146 384.50415786 -18.34633985 384.50105605 -17.49463819 384.49786025 C-15.47676015 384.48983833 -13.4589 384.4775109 -11.44104932 384.46429092 C-11.01608575 370.96958297 -10.70032082 357.47656831 -10.50843023 343.97643024 C-10.41612994 337.70111278 -10.29197868 331.43050096 -10.08313917 325.15789443 C-8.95149333 290.20623638 -13.21550573 262.66904137 -27.24140333 230.58388931 C-30.21972393 223.74125227 -32.70068017 216.75794078 -35.15979932 209.71429092 C-35.96199649 207.48487764 -36.76661907 205.25633534 -37.57386182 203.02874404 C-37.95961378 201.95890273 -38.34536573 200.88906142 -38.74280713 199.78680068 C-45.93479055 179.84472606 -53.19115027 159.92744414 -60.5201814 140.03536636 C-67.96732519 119.81729853 -75.30547116 99.5602681 -82.6265962 79.29632217 C-83.05892057 78.10003692 -83.49124494 76.90375167 -83.93667005 75.67121536 C-84.74456927 73.43525954 -85.55200552 71.19913636 -86.35888074 68.96281081 C-88.35057828 63.44931594 -90.36880876 57.94804206 -92.44104932 52.46429092 C-92.77104932 52.46429092 -93.10104932 52.46429092 -93.44104932 52.46429092 Z M270.55895068 83.46429092 C270.23307215 84.4110041 270.23307215 84.4110041 269.90061022 85.3768428 C267.10055649 93.51061805 264.29905328 101.64389359 261.49645068 109.77679092 C261.26865294 110.43784709 261.0408552 111.09890327 260.8061545 111.77999145 C254.94399119 128.79042675 249.06312282 145.79392769 243.12145068 162.77679092 C237.13885388 179.88281312 231.21591809 197.00917643 225.31360079 214.14302856 C224.63540612 216.11128936 223.95675885 218.07939352 223.27797534 220.04745132 C217.60841137 236.48812183 212.01883096 252.95273039 206.55895068 269.46429092 C220.7567116 270.99587928 220.7567116 270.99587928 233.37145068 265.90179092 C234.80062631 264.45481416 236.19886177 262.97638976 237.55895068 261.46429092 C238.94216435 260.28268957 240.33764461 259.11525889 241.74645068 257.96429092 C270.02891596 232.79289681 284.96311606 194.31346801 287.37145068 157.21429092 C288.60174718 131.95794942 283.37516994 106.29853159 272.55895068 83.46429092 C271.89895068 83.46429092 271.23895068 83.46429092 270.55895068 83.46429092 Z M286.55895068 223.46429092 C286.0974663 224.38468154 285.63598193 225.30507217 285.16051318 226.25335342 C278.06945488 240.12676127 269.30202612 251.92517314 259.02770068 263.60100967 C256.51606462 266.39512789 256.51606462 266.39512789 254.55895068 269.46429092 C265.44895068 269.46429092 276.33895068 269.46429092 287.55895068 269.46429092 C287.55895068 254.28429092 287.55895068 239.10429092 287.55895068 223.46429092 C287.22895068 223.46429092 286.89895068 223.46429092 286.55895068 223.46429092 Z M-225.44104932 257.46429092 C-243.42118805 307.46302406 -242.09582383 359.11349797 -219.44104932 407.46429092 C-210.82568356 425.61335553 -199.75273273 441.4696339 -186.44104932 456.46429092 C-185.57351026 457.45429092 -184.7059712 458.44429092 -183.81214307 459.46429092 C-178.97846843 464.89571769 -174.01299348 469.80787822 -168.44104932 474.46429092 C-167.56706495 475.24932998 -166.69308057 476.03436904 -165.79261182 476.84319717 C-153.32235012 487.94829773 -139.17379507 497.00945706 -124.62854932 505.15179092 C-123.91867872 505.54954726 -123.20880811 505.94730361 -122.47742628 506.35711318 C-117.82485121 508.88920575 -113.53936177 510.55242375 -108.44104932 512.46429092 C-108.44104932 468.90429092 -108.44104932 425.34429092 -108.44104932 380.46429092 C-117.84604932 375.51429092 -117.84604932 375.51429092 -127.44104932 370.46429092 C-171.78298882 344.92333377 -208.23820917 306.81899482 -224.44104932 257.46429092 C-224.77104932 257.46429092 -225.10104932 257.46429092 -225.44104932 257.46429092 Z M9.55895068 284.46429092 C16.62618242 304.4881142 23.69989404 324.48726299 31.05895068 344.40179092 C32.22154845 347.55515495 33.383495 350.70875843 34.54540087 353.86237746 C35.25276716 355.78155984 35.96064261 357.70055469 36.66918017 359.61930496 C38.98552775 365.89383524 41.27827042 372.17671057 43.55895068 378.46429092 C50.80903945 377.93306666 57.13332237 376.25369346 63.99645068 373.90179092 C65.04977587 373.54391494 66.10310107 373.18603896 67.18834521 372.81731826 C110.54444256 357.79957129 156.23992118 327.51826691 177.55895068 285.46429092 C177.55895068 285.13429092 177.55895068 284.80429092 177.55895068 284.46429092 C122.11895068 284.46429092 66.67895068 284.46429092 9.55895068 284.46429092 Z M204.55895068 284.46429092 C206.88534991 292.30653733 206.88534991 292.30653733 209.49400927 300.01922256 C209.84729296 300.99801879 210.20057665 301.97681503 210.56456591 302.98527175 C211.13026293 304.53916358 211.13026293 304.53916358 211.70738818 306.12444717 C212.11175097 307.24154571 212.51611376 308.35864425 212.93272997 309.50959426 C214.03340434 312.54775546 215.13666851 315.58495934 216.24131609 318.6216777 C216.94129071 320.54697992 217.6401124 322.47269674 218.33855273 324.39855605 C225.56305068 344.31871622 232.87612849 364.20545643 240.22469164 384.08019668 C247.92889743 404.92631745 255.46883865 425.82864996 262.96492602 446.75024062 C270.70989278 468.36622735 278.5505894 489.94434318 286.55895068 511.46429092 C286.88895068 511.46429092 287.21895068 511.46429092 287.55895068 511.46429092 C287.55895068 436.55429092 287.55895068 361.64429092 287.55895068 284.46429092 C260.16895068 284.46429092 232.77895068 284.46429092 204.55895068 284.46429092 Z M193.55895068 305.46429092 C193.3041141 306.20818572 193.04927752 306.95208053 192.78671862 307.7185176 C171.0492044 371.16636899 171.0492044 371.16636899 162.07283618 396.79818374 C156.57414031 412.50347802 151.15333919 428.23525085 145.74398638 443.97148162 C139.21654223 462.96020188 132.67552937 481.94389151 126.05895068 500.90179092 C125.60661059 502.19850723 125.60661059 502.19850723 125.14513232 503.52141982 C124.29426394 505.95967994 123.44251439 508.39762944 122.59020068 510.83538467 C122.20040026 511.9509323 122.20040026 511.9509323 121.80272509 513.08901626 C120.56780636 516.61509139 119.32038778 520.13590825 118.04723193 523.64837295 C117.69332385 524.62702064 117.69332385 524.62702064 117.33226611 525.62543899 C116.69925125 527.37107666 116.0618898 529.11513645 115.42418505 530.85906631 C114.45388833 533.3231098 114.45388833 533.3231098 114.55895068 535.46429092 C168.34895068 535.46429092 222.13895068 535.46429092 277.55895068 535.46429092 C272.02423438 518.74988444 272.02423438 518.74988444 266.09020068 502.19475967 C265.27572738 499.99880361 264.46127522 497.80283971 263.6468413 495.60686904 C263.22636523 494.47708633 262.80588915 493.34730361 262.37267138 492.18328506 C260.05037653 485.94058016 257.74074649 479.69320476 255.43395068 473.44475967 C255.19362612 472.79395305 254.95330157 472.14314643 254.70569445 471.4726184 C249.05859537 456.17171245 243.55489167 440.81998991 238.05895068 425.46429092 C230.14931733 403.36786978 222.12087125 381.31944905 213.97951342 359.30733901 C207.36073433 341.40970065 200.83892926 323.48381807 194.55895068 305.46429092 C194.22895068 305.46429092 193.89895068 305.46429092 193.55895068 305.46429092 Z M4.55895068 321.46429092 C4.55895068 342.25429092 4.55895068 363.04429092 4.55895068 384.46429092 C10.50219224 384.46429092 15.38776826 384.35496003 21.12145068 383.46429092 C22.94869677 383.18585342 22.94869677 383.18585342 24.81285693 382.90179092 C25.71906787 382.75741592 26.6252788 382.61304092 27.55895068 382.46429092 C20.41357618 362.05871469 13.15454612 341.70731742 5.55895068 321.46429092 C5.22895068 321.46429092 4.89895068 321.46429092 4.55895068 321.46429092 Z M167.55895068 326.46429092 C167.10270312 326.94148574 166.64645556 327.41868057 166.17638232 327.91033584 C134.73191792 360.59422281 95.92189158 383.14900547 51.55895068 393.46429092 C50.55581946 396.56115288 50.55167108 398.2839806 51.67272021 401.32830459 C51.94617266 402.08718475 52.21962512 402.8460649 52.50136401 403.62794143 C52.81169573 404.45436645 53.12202746 405.28079147 53.44176318 406.13225967 C53.76345477 407.01496032 54.08514636 407.89766097 54.41658618 408.80711013 C55.49543632 411.75921501 56.58968773 414.70536787 57.68395068 417.65179092 C58.44791323 419.73298844 59.21091445 421.81453907 59.97301318 423.89641982 C62.04779908 429.55545035 64.13620578 435.20936479 66.22752978 440.86230117 C68.27629625 446.40497804 70.31661891 451.95075796 72.35722567 457.49644309 C75.28717452 465.45904076 78.21839189 473.4211557 81.16100146 481.37908584 C81.58052081 482.5144226 82.00004016 483.64975936 82.43227221 484.81950027 C83.2582675 487.05460143 84.08497376 489.28943999 84.91243578 491.52399856 C87.01945137 497.22913179 89.0909597 502.94448888 91.11363818 508.68011123 C91.52468798 509.84124435 91.93573779 511.00237746 92.35924365 512.19869643 C93.14328954 514.41966121 93.92122715 516.64279432 94.69225146 518.86831313 C95.21408007 520.34498962 95.21408007 520.34498962 95.74645068 521.85149795 C96.04938037 522.72098068 96.35231005 523.5904634 96.66441943 524.48629409 C97.38890358 526.64205187 97.38890358 526.64205187 99.55895068 527.46429092 C99.81378726 526.72039611 100.06862383 525.97650131 100.33118273 525.21006423 C122.21570436 461.33312496 122.21570436 461.33312496 132.04869677 433.24456435 C135.47862033 423.44367635 138.88696413 413.63563266 142.27379443 403.81975967 C142.68187335 402.63709014 143.08995226 401.45442062 143.51039721 400.23591262 C145.16476066 395.44006889 146.81862189 390.64405376 148.47057177 385.84737808 C152.42201402 374.37421716 156.37896966 362.90450289 160.46910693 351.47991592 C160.90672602 350.25487098 160.90672602 350.25487098 161.35318591 349.00507766 C162.67418242 345.30986056 164.00293442 341.61780811 165.34679247 337.93084365 C165.79796883 336.67515496 166.24891364 335.41938304 166.69957568 334.16350967 C167.2801372 332.56769058 167.2801372 332.56769058 167.87242724 330.93963271 C168.8500169 328.48810007 168.8500169 328.48810007 167.55895068 326.46429092 Z M-93.44104932 386.46429092 C-93.44104932 430.35429092 -93.44104932 474.24429092 -93.44104932 519.46429092 C-70.62000352 526.5767701 -70.62000352 526.5767701 -47.44104932 531.46429092 C-46.52807081 531.61237197 -45.61509229 531.76045303 -44.67444776 531.91302139 C-41.80758245 532.36673823 -38.93834175 532.79638175 -36.06604932 533.21429092 C-34.78359327 533.40632095 -34.78359327 533.40632095 -33.47522901 533.60223037 C-25.95754685 534.62051893 -19.2310868 534.46429092 -11.44104932 534.46429092 C-11.44104932 490.24429092 -11.44104932 446.02429092 -11.44104932 400.46429092 C-18.04104932 400.13429092 -24.64104932 399.80429092 -31.44104932 399.46429092 C-35.96079819 398.9585154 -40.39562154 398.41869631 -44.87854932 397.71429092 C-46.0110713 397.54091201 -47.14359327 397.3675331 -48.31043409 397.18890029 C-62.25734609 394.97009566 -76.06156467 391.9764649 -89.35901807 387.16350967 C-91.39098811 386.35817051 -91.39098811 386.35817051 -93.44104932 386.46429092 Z M4.55895068 400.46429092 C4.55895068 445.01429092 4.55895068 489.56429092 4.55895068 535.46429092 C30.29895068 535.46429092 56.03895068 535.46429092 82.55895068 535.46429092 C81.79431405 531.64110776 80.92610612 528.42824746 79.61974169 524.79925185 C79.01531992 523.11244056 79.01531992 523.11244056 78.39868762 521.39155227 C77.95786349 520.17289977 77.51703936 518.95424728 77.06285693 517.69866592 C76.59733104 516.40428367 76.13208161 515.10980198 75.66708972 513.81522781 C74.41600706 510.33532655 73.16027185 506.85712148 71.9034331 503.37929565 C71.1211274 501.21339589 70.34016418 499.04701701 69.5596831 496.88045913 C60.93543526 472.94031117 52.24138152 449.02537989 43.39914538 425.16476089 C41.76866902 420.76312444 40.15773747 416.35578277 38.57848193 411.93548232 C38.10028002 410.60744331 38.10028002 410.60744331 37.61241747 409.25257522 C37.00770945 407.57141178 36.40862023 405.88821325 35.81603076 404.20274001 C30.6731256 389.9670432 25.09752501 398.1822271 4.55895068 400.46429092 Z " fill="#FEFEFE" transform="translate(284.4410493224859,40.53570908308029)"/>
<path d="" fill="#000000" transform="translate(0,0)"/>
</svg>
